<?xml version="1.0" encoding="utf-8"?>
<!-- Generator: Adobe Illustrator 28.2.0, SVG Export Plug-In . SVG Version: 6.00 Build 0)  -->
<svg version="1.1" id="Calque_2_00000131347707394311873030000009840447406622343599_"
	 xmlns="http://www.w3.org/2000/svg" xmlns:xlink="http://www.w3.org/1999/xlink" x="0px" y="0px" viewBox="0 0 342.7 67.3"
	 style="enable-background:new 0 0 342.7 67.3;" xml:space="preserve">
<style type="text/css">
	.st0{fill:#FF5722;}
	.st1{fill:#0F172A;}
</style>
<g>
	<path class="st0" d="M87.8,35.3c-0.8-0.9-1.6-1.8-2.5-2.6c-10-8.4-21.4-13.4-34.5-14.5c-1.5-0.1-3-0.2-4.3-1.4
		C41,11.6,35.4,6.4,29.8,1.3C29,0.4,27.8,0,26.6,0H0.9C0.1,0-0.3,1.1,0.4,1.7C8.1,7.8,34.5,28.9,35.9,30c0.2,0.1,0.1,0.5-0.1,0.5
		c-3.3,1-6.3,1.9-9.2,2.9c-0.6,0.2-1.4,0.2-1.5,0.8c-0.1,0.7,0.8,0.8,1.2,1.1C32.7,39,39,42.6,45.2,46.2c0.4,0.2,0.8,0.5,1.1,0.8
		c0,0.1-0.1,0.2-0.2,0.2C34,43.4,21.9,39.6,9.7,35.8c-0.8-0.3-1.4,0.8-0.8,1.4l29.6,27.7c2.7,2.5,6.6,3.1,9.8,1.5
		c8.2-3.9,20.2-8.1,28.7-10.5c5.6-1.7,8.8-4.7,10.1-10.2c0.3-1.1,0.6-2.1,0.8-3.2c0.3-1.2-0.1-2.5-1.2-3.1c-0.8-0.5-1.8-1-2.3-2.2
		c1,0,1.8,0,2.5,0c0.6,0,1.3,0.2,1.7-0.5C88.8,36.2,88.2,35.7,87.8,35.3L87.8,35.3z M72.8,35.5c-7.2,2.1-13.2-1.4-13.6-7.1
		c0-0.2,0.3-0.4,0.5-0.3c4.4,2.3,8.8,4.5,13.2,6.8C73.2,35,73.1,35.4,72.8,35.5z"/>
	<path class="st0" d="M52.5,14.7c-0.9,0.4-1.2-0.2-1.5-0.5C46.5,10.4,38.7,3.7,35.6,1.1C35.2,0.7,35.5,0,36,0h6.4
		c1.1,0,2.1,0.6,2.6,1.5C47.5,5.9,50,10.3,52.5,14.7L52.5,14.7z"/>
</g>
<g>
	<path class="st1" d="M103.2,52.9V15.2h7.7V46h17.4v6.9H103.2z"/>
	<path class="st1" d="M144.4,53.5c-2.7,0-5-0.6-7.1-1.8c-2.1-1.2-3.6-2.9-4.8-5.1c-1.2-2.2-1.8-4.8-1.8-7.8s0.6-5.5,1.7-7.7
		c1.1-2.2,2.7-3.8,4.7-5c2-1.2,4.3-1.8,6.9-1.8c2.4,0,4.6,0.5,6.6,1.6c1.9,1.1,3.5,2.7,4.6,4.7s1.7,4.6,1.7,7.6V41h-18.9
		c0.2,2,0.9,3.6,2.1,4.7c1.1,1.1,2.5,1.7,4.1,1.7c1.3,0,2.4-0.3,3.2-0.9c0.8-0.6,1.4-1.4,1.7-2.5h7.7c-0.4,2-1.1,3.7-2.3,5.1
		c-1.2,1.4-2.6,2.5-4.4,3.3S146.6,53.5,144.4,53.5L144.4,53.5z M138.3,35.8h11.4c-0.2-1.7-0.9-3.1-1.9-4c-1-0.9-2.2-1.4-3.6-1.4
		s-2.7,0.5-3.8,1.4C139.4,32.8,138.7,34.1,138.3,35.8z"/>
	<path class="st1" d="M172.5,53.4c-2,0-3.8-0.5-5.3-1.4s-2.7-2.3-3.6-4s-1.3-3.7-1.3-6V25h7.5v15.5c0,1.9,0.5,3.4,1.4,4.5
		s2.2,1.6,3.9,1.6s3.1-0.6,4.2-1.7s1.6-2.7,1.6-4.6V25h7.5v27.9h-7.3v-4.3h-0.2c-0.8,1.5-1.9,2.8-3.3,3.6
		C176.2,53,174.5,53.4,172.5,53.4L172.5,53.4z"/>
	<path class="st1" d="M195.4,52.9V13.8h7.5V35h0.2l9.5-10h9l-10.7,11.2l11.6,16.8h-8.8L205.6,41l-2.6,2.4v9.5H195.4L195.4,52.9z"/>
	<path class="st1" d="M234.2,52.9h-7.7V15.2h24.7v6.9h-17v8.4h15.6v6.9h-15.6V52.9L234.2,52.9z"/>
	<path class="st1" d="M256.1,52.9V13.8h7.5v39.1H256.1z"/>
	<path class="st1" d="M283,53.5c-2.6,0-5-0.6-7.1-1.8c-2.1-1.2-3.7-2.9-4.9-5c-1.2-2.2-1.8-4.7-1.8-7.7s0.6-5.5,1.8-7.7
		c1.2-2.2,2.8-3.9,4.9-5s4.5-1.8,7.1-1.8s5.1,0.6,7.2,1.8s3.7,2.9,4.9,5s1.8,4.8,1.8,7.7s-0.6,5.5-1.8,7.7c-1.2,2.2-2.8,3.9-4.9,5
		C288.1,52.9,285.7,53.5,283,53.5L283,53.5z M283,46.8c1.9,0,3.4-0.7,4.6-2.1s1.7-3.3,1.7-5.7s-0.6-4.3-1.7-5.7
		c-1.1-1.4-2.7-2.1-4.6-2.1s-3.3,0.7-4.5,2.1c-1.2,1.4-1.8,3.3-1.8,5.7s0.6,4.3,1.8,5.7S281.2,46.8,283,46.8z"/>
	<path class="st1" d="M307,52.9L298.8,25h7.6l4.8,18.3h0.2l5.8-18.3h7.3l5.7,18.3h0.2l4.9-18.3h7.5l-8.2,27.9h-8l-5.7-17.5h-0.2
		L315,52.9H307L307,52.9z"/>
</g>
</svg>
